<?xml version="1.0" standalone="no"?>
<!DOCTYPE svg PUBLIC "-//W3C//DTD SVG 20010904//EN"
 "http://www.w3.org/TR/2001/REC-SVG-20010904/DTD/svg10.dtd">
<svg version="1.0" xmlns="http://www.w3.org/2000/svg"
 width="193.000000pt" height="193.000000pt" viewBox="0 0 193.000000 193.000000"
 preserveAspectRatio="xMidYMid meet">
<metadata>
Created by potrace 1.14, written by Peter Selinger 2001-2017
</metadata>
<g transform="translate(0.000000,193.000000) scale(0.100000,-0.100000)"
fill="#000000" stroke="none">
<path d="M797 1713 c-3 -5 -5 -149 -5 -321 l1 -313 56 3 56 3 0 270 0 270 128
3 c70 1 144 -2 165 -7 73 -20 135 -94 160 -191 11 -43 13 -878 2 -885 -5 -3
-6 -14 -3 -25 8 -30 -52 -145 -90 -174 -43 -33 -108 -49 -189 -48 -71 2 -81
-4 -83 -46 -1 -39 20 -43 165 -28 58 5 102 16 118 29 6 5 12 6 12 3 0 -10 26
11 82 67 27 26 61 73 76 105 l27 57 -1 470 c0 259 -3 484 -6 500 -7 41 -46
125 -58 125 -6 0 -9 4 -8 9 4 11 -59 71 -66 64 -3 -4 -6 -2 -6 4 0 9 -49 35
-70 39 -3 0 -22 5 -43 11 -43 13 -413 18 -420 6z"/>
<path d="M500 1550 c-7 -4 -9 -217 -8 -596 l3 -589 53 -3 52 -3 -2 598 -3 598
-43 0 c-23 1 -47 -2 -52 -5z"/>
<path d="M1071 1547 c-7 -7 -11 -101 -11 -269 l0 -258 -182 -2 -183 -3 -3 -56
-3 -57 186 2 185 1 1 -225 c0 -124 1 -246 1 -272 0 -37 4 -48 17 -49 9 0 29
-2 44 -3 15 -1 33 1 38 5 8 5 11 186 10 594 0 323 -2 590 -4 592 -10 9 -87 9
-96 0z"/>
<path d="M801 860 c-11 -6 -13 -639 -2 -641 29 -5 83 -4 93 2 9 6 12 85 13
325 l0 318 -47 1 c-26 1 -52 -1 -57 -5z"/>
</g>
</svg>
